<mxfile host="app.diagrams.net" modified="2021-06-16T08:16:03.197Z" agent="5.0 (Macintosh; Intel Mac OS X 10_14_6) AppleWebKit/537.36 (KHTML, like Gecko) Chrome/91.0.4472.101 Safari/537.36" etag="CYbr_m-ISLZ2Dc6sX7TV" version="14.7.9" type="github" pages="2">
  <diagram id="C5RBs43oDa-KdzZeNtuy" name="springboot启动流程">
    <mxGraphModel dx="1426" dy="794" grid="1" gridSize="10" guides="1" tooltips="1" connect="1" arrows="1" fold="1" page="1" pageScale="1" pageWidth="827" pageHeight="1169" math="0" shadow="0">
      <root>
        <mxCell id="WIyWlLk6GJQsqaUBKTNV-0" />
        <mxCell id="WIyWlLk6GJQsqaUBKTNV-1" parent="WIyWlLk6GJQsqaUBKTNV-0" />
        <mxCell id="IH1qbgPZtB7bxMejOqHf-5" value="" style="edgeStyle=orthogonalEdgeStyle;rounded=0;orthogonalLoop=1;jettySize=auto;html=1;" parent="WIyWlLk6GJQsqaUBKTNV-1" source="IH1qbgPZtB7bxMejOqHf-1" target="IH1qbgPZtB7bxMejOqHf-4" edge="1">
          <mxGeometry relative="1" as="geometry" />
        </mxCell>
        <mxCell id="IH1qbgPZtB7bxMejOqHf-1" value="启动main方法" style="rounded=1;whiteSpace=wrap;html=1;absoluteArcSize=1;arcSize=14;strokeWidth=1;" parent="WIyWlLk6GJQsqaUBKTNV-1" vertex="1">
          <mxGeometry x="80" y="40" width="130" height="40" as="geometry" />
        </mxCell>
        <mxCell id="IH1qbgPZtB7bxMejOqHf-7" value="" style="edgeStyle=orthogonalEdgeStyle;rounded=0;orthogonalLoop=1;jettySize=auto;html=1;" parent="WIyWlLk6GJQsqaUBKTNV-1" source="IH1qbgPZtB7bxMejOqHf-4" target="IH1qbgPZtB7bxMejOqHf-6" edge="1">
          <mxGeometry relative="1" as="geometry" />
        </mxCell>
        <mxCell id="IH1qbgPZtB7bxMejOqHf-13" value="" style="edgeStyle=orthogonalEdgeStyle;rounded=0;orthogonalLoop=1;jettySize=auto;html=1;" parent="WIyWlLk6GJQsqaUBKTNV-1" source="IH1qbgPZtB7bxMejOqHf-4" target="IH1qbgPZtB7bxMejOqHf-12" edge="1">
          <mxGeometry relative="1" as="geometry" />
        </mxCell>
        <mxCell id="IH1qbgPZtB7bxMejOqHf-4" value="初始化配置" style="whiteSpace=wrap;html=1;rounded=1;strokeWidth=1;arcSize=14;" parent="WIyWlLk6GJQsqaUBKTNV-1" vertex="1">
          <mxGeometry x="85" y="150" width="120" height="60" as="geometry" />
        </mxCell>
        <mxCell id="IH1qbgPZtB7bxMejOqHf-9" value="" style="edgeStyle=orthogonalEdgeStyle;rounded=0;orthogonalLoop=1;jettySize=auto;html=1;" parent="WIyWlLk6GJQsqaUBKTNV-1" source="IH1qbgPZtB7bxMejOqHf-6" target="IH1qbgPZtB7bxMejOqHf-8" edge="1">
          <mxGeometry relative="1" as="geometry" />
        </mxCell>
        <mxCell id="IH1qbgPZtB7bxMejOqHf-6" value="&lt;span style=&quot;color: rgb(49 , 70 , 89) ; font-family: &amp;#34;lato&amp;#34; , &amp;#34;pingfang sc&amp;#34; , &amp;#34;microsoft yahei&amp;#34; , sans-serif ; text-align: left ; background-color: rgb(255 , 255 , 255)&quot;&gt;&lt;font style=&quot;font-size: 14px&quot;&gt;loadFactories&lt;/font&gt;&lt;/span&gt;" style="rounded=1;whiteSpace=wrap;html=1;strokeWidth=1;arcSize=14;" parent="WIyWlLk6GJQsqaUBKTNV-1" vertex="1">
          <mxGeometry x="285" y="150" width="120" height="60" as="geometry" />
        </mxCell>
        <mxCell id="IH1qbgPZtB7bxMejOqHf-11" value="" style="edgeStyle=orthogonalEdgeStyle;rounded=0;orthogonalLoop=1;jettySize=auto;html=1;" parent="WIyWlLk6GJQsqaUBKTNV-1" source="IH1qbgPZtB7bxMejOqHf-8" target="IH1qbgPZtB7bxMejOqHf-10" edge="1">
          <mxGeometry relative="1" as="geometry" />
        </mxCell>
        <mxCell id="IH1qbgPZtB7bxMejOqHf-8" value="&lt;span style=&quot;color: rgb(49 , 70 , 89) ; font-family: &amp;#34;lato&amp;#34; , &amp;#34;pingfang sc&amp;#34; , &amp;#34;microsoft yahei&amp;#34; , sans-serif ; font-style: normal ; letter-spacing: normal ; text-align: left ; text-indent: 0px ; text-transform: none ; word-spacing: 0px ; background-color: rgb(255 , 255 , 255) ; display: inline ; float: none&quot;&gt;&lt;font style=&quot;font-size: 14px&quot;&gt;spring.factories&lt;/font&gt;&lt;/span&gt;" style="whiteSpace=wrap;html=1;rounded=1;strokeWidth=1;arcSize=14;" parent="WIyWlLk6GJQsqaUBKTNV-1" vertex="1">
          <mxGeometry x="485" y="150" width="120" height="60" as="geometry" />
        </mxCell>
        <mxCell id="IH1qbgPZtB7bxMejOqHf-10" value="&lt;span style=&quot;color: rgb(49, 70, 89); font-family: lato, &amp;quot;pingfang sc&amp;quot;, &amp;quot;microsoft yahei&amp;quot;, sans-serif; font-size: 10px; text-align: left; background-color: rgb(255, 255, 255);&quot;&gt;创建初始配置对象&lt;/span&gt;" style="whiteSpace=wrap;html=1;rounded=1;strokeWidth=1;arcSize=14;fontSize=10;" parent="WIyWlLk6GJQsqaUBKTNV-1" vertex="1">
          <mxGeometry x="685" y="150" width="120" height="60" as="geometry" />
        </mxCell>
        <mxCell id="IH1qbgPZtB7bxMejOqHf-15" value="" style="edgeStyle=orthogonalEdgeStyle;rounded=0;orthogonalLoop=1;jettySize=auto;html=1;fontSize=10;" parent="WIyWlLk6GJQsqaUBKTNV-1" source="IH1qbgPZtB7bxMejOqHf-12" target="IH1qbgPZtB7bxMejOqHf-14" edge="1">
          <mxGeometry relative="1" as="geometry" />
        </mxCell>
        <mxCell id="IH1qbgPZtB7bxMejOqHf-17" value="" style="edgeStyle=orthogonalEdgeStyle;rounded=0;orthogonalLoop=1;jettySize=auto;html=1;fontSize=10;" parent="WIyWlLk6GJQsqaUBKTNV-1" source="IH1qbgPZtB7bxMejOqHf-12" target="IH1qbgPZtB7bxMejOqHf-16" edge="1">
          <mxGeometry relative="1" as="geometry" />
        </mxCell>
        <mxCell id="IH1qbgPZtB7bxMejOqHf-12" value="&lt;span style=&quot;color: rgb(49 , 70 , 89) ; font-family: &amp;#34;lato&amp;#34; , &amp;#34;pingfang sc&amp;#34; , &amp;#34;microsoft yahei&amp;#34; , sans-serif ; text-align: left ; background-color: rgb(255 , 255 , 255)&quot;&gt;&lt;font style=&quot;font-size: 12px&quot;&gt;environment&lt;/font&gt;&lt;/span&gt;" style="whiteSpace=wrap;html=1;rounded=1;strokeWidth=1;arcSize=14;" parent="WIyWlLk6GJQsqaUBKTNV-1" vertex="1">
          <mxGeometry x="85" y="290" width="120" height="60" as="geometry" />
        </mxCell>
        <mxCell id="IH1qbgPZtB7bxMejOqHf-14" value="&lt;span style=&quot;color: rgb(49 , 70 , 89) ; font-family: &amp;#34;lato&amp;#34; , &amp;#34;pingfang sc&amp;#34; , &amp;#34;microsoft yahei&amp;#34; , sans-serif ; text-align: left ; background-color: rgb(255 , 255 , 255)&quot;&gt;&lt;font style=&quot;font-size: 12px&quot;&gt;application.yml&lt;/font&gt;&lt;/span&gt;" style="whiteSpace=wrap;html=1;rounded=1;strokeWidth=1;arcSize=14;" parent="WIyWlLk6GJQsqaUBKTNV-1" vertex="1">
          <mxGeometry x="285" y="290" width="120" height="60" as="geometry" />
        </mxCell>
        <mxCell id="IH1qbgPZtB7bxMejOqHf-19" value="" style="edgeStyle=orthogonalEdgeStyle;rounded=0;orthogonalLoop=1;jettySize=auto;html=1;fontFamily=Garamond;fontSize=10;" parent="WIyWlLk6GJQsqaUBKTNV-1" source="IH1qbgPZtB7bxMejOqHf-16" target="IH1qbgPZtB7bxMejOqHf-18" edge="1">
          <mxGeometry relative="1" as="geometry" />
        </mxCell>
        <mxCell id="IH1qbgPZtB7bxMejOqHf-21" value="" style="edgeStyle=orthogonalEdgeStyle;rounded=0;orthogonalLoop=1;jettySize=auto;html=1;fontFamily=Garamond;fontSize=10;" parent="WIyWlLk6GJQsqaUBKTNV-1" source="IH1qbgPZtB7bxMejOqHf-16" target="IH1qbgPZtB7bxMejOqHf-20" edge="1">
          <mxGeometry relative="1" as="geometry" />
        </mxCell>
        <mxCell id="IH1qbgPZtB7bxMejOqHf-16" value="&lt;span style=&quot;margin: 0px 3px ; padding: 0px ; color: rgb(49 , 70 , 89) ; text-align: left ; background-color: rgb(255 , 255 , 255)&quot;&gt;&lt;font style=&quot;font-size: 12px&quot;&gt;创建应用程序上下文&lt;/font&gt;&lt;/span&gt;" style="whiteSpace=wrap;html=1;rounded=1;strokeWidth=1;arcSize=14;fontFamily=Garamond;fontSize=12;" parent="WIyWlLk6GJQsqaUBKTNV-1" vertex="1">
          <mxGeometry x="85" y="430" width="120" height="60" as="geometry" />
        </mxCell>
        <mxCell id="IH1qbgPZtB7bxMejOqHf-18" value="&lt;span style=&quot;color: rgb(49 , 70 , 89) ; font-family: &amp;#34;lato&amp;#34; , &amp;#34;pingfang sc&amp;#34; , &amp;#34;microsoft yahei&amp;#34; , sans-serif ; text-align: left ; background-color: rgb(255 , 255 , 255)&quot;&gt;&lt;font style=&quot;font-size: 12px&quot;&gt;createApplicationContext，创建 bean工厂对象&lt;/font&gt;&lt;/span&gt;" style="whiteSpace=wrap;html=1;rounded=1;strokeWidth=1;arcSize=14;fontFamily=Garamond;fontSize=12;" parent="WIyWlLk6GJQsqaUBKTNV-1" vertex="1">
          <mxGeometry x="285" y="430" width="285" height="60" as="geometry" />
        </mxCell>
        <mxCell id="IH1qbgPZtB7bxMejOqHf-23" value="" style="edgeStyle=orthogonalEdgeStyle;rounded=0;orthogonalLoop=1;jettySize=auto;html=1;fontFamily=Garamond;fontSize=10;" parent="WIyWlLk6GJQsqaUBKTNV-1" source="IH1qbgPZtB7bxMejOqHf-20" target="IH1qbgPZtB7bxMejOqHf-22" edge="1">
          <mxGeometry relative="1" as="geometry" />
        </mxCell>
        <mxCell id="IH1qbgPZtB7bxMejOqHf-33" value="" style="edgeStyle=orthogonalEdgeStyle;rounded=0;orthogonalLoop=1;jettySize=auto;html=1;fontFamily=Garamond;fontSize=10;" parent="WIyWlLk6GJQsqaUBKTNV-1" source="IH1qbgPZtB7bxMejOqHf-20" target="IH1qbgPZtB7bxMejOqHf-32" edge="1">
          <mxGeometry relative="1" as="geometry" />
        </mxCell>
        <mxCell id="IH1qbgPZtB7bxMejOqHf-20" value="&lt;span style=&quot;margin: 0px 3px ; padding: 0px ; color: rgb(49 , 70 , 89) ; text-align: left ; background-color: rgb(255 , 255 , 255)&quot;&gt;&lt;font style=&quot;font-size: 12px&quot;&gt;refresh&lt;/font&gt;&lt;/span&gt;" style="whiteSpace=wrap;html=1;rounded=1;strokeWidth=1;arcSize=14;fontFamily=Garamond;fontSize=12;" parent="WIyWlLk6GJQsqaUBKTNV-1" vertex="1">
          <mxGeometry x="85" y="570" width="120" height="60" as="geometry" />
        </mxCell>
        <mxCell id="IH1qbgPZtB7bxMejOqHf-25" value="" style="edgeStyle=orthogonalEdgeStyle;rounded=0;orthogonalLoop=1;jettySize=auto;html=1;fontFamily=Garamond;fontSize=10;" parent="WIyWlLk6GJQsqaUBKTNV-1" source="IH1qbgPZtB7bxMejOqHf-22" target="IH1qbgPZtB7bxMejOqHf-24" edge="1">
          <mxGeometry relative="1" as="geometry" />
        </mxCell>
        <mxCell id="IH1qbgPZtB7bxMejOqHf-22" value="&lt;span style=&quot;margin: 0px 3px ; padding: 0px ; color: rgb(49 , 70 , 89) ; text-align: left ; background-color: rgb(255 , 255 , 255)&quot;&gt;&lt;font style=&quot;font-size: 12px&quot;&gt;配置工厂对象&lt;/font&gt;&lt;/span&gt;" style="whiteSpace=wrap;html=1;rounded=1;strokeWidth=1;arcSize=14;fontFamily=Garamond;fontSize=12;" parent="WIyWlLk6GJQsqaUBKTNV-1" vertex="1">
          <mxGeometry x="285" y="570" width="120" height="60" as="geometry" />
        </mxCell>
        <mxCell id="IH1qbgPZtB7bxMejOqHf-27" value="" style="edgeStyle=orthogonalEdgeStyle;rounded=0;orthogonalLoop=1;jettySize=auto;html=1;fontFamily=Garamond;fontSize=10;" parent="WIyWlLk6GJQsqaUBKTNV-1" source="IH1qbgPZtB7bxMejOqHf-24" target="IH1qbgPZtB7bxMejOqHf-26" edge="1">
          <mxGeometry relative="1" as="geometry" />
        </mxCell>
        <mxCell id="IH1qbgPZtB7bxMejOqHf-24" value="&lt;span style=&quot;margin: 0px 3px ; padding: 0px ; color: rgb(49 , 70 , 89) ; text-align: left ; background-color: rgb(255 , 255 , 255)&quot;&gt;&lt;font style=&quot;font-size: 12px&quot;&gt;注册并实例化bean工厂处理器&lt;/font&gt;&lt;/span&gt;" style="whiteSpace=wrap;html=1;rounded=1;strokeWidth=1;arcSize=14;fontFamily=Garamond;fontSize=12;" parent="WIyWlLk6GJQsqaUBKTNV-1" vertex="1">
          <mxGeometry x="485" y="570" width="120" height="60" as="geometry" />
        </mxCell>
        <mxCell id="IH1qbgPZtB7bxMejOqHf-29" value="" style="edgeStyle=orthogonalEdgeStyle;rounded=0;orthogonalLoop=1;jettySize=auto;html=1;fontFamily=Garamond;fontSize=10;" parent="WIyWlLk6GJQsqaUBKTNV-1" source="IH1qbgPZtB7bxMejOqHf-26" target="IH1qbgPZtB7bxMejOqHf-28" edge="1">
          <mxGeometry relative="1" as="geometry" />
        </mxCell>
        <mxCell id="IH1qbgPZtB7bxMejOqHf-26" value="&lt;div style=&quot;text-align: left&quot;&gt;&lt;font color=&quot;#314659&quot;&gt;&lt;span style=&quot;background-color: rgb(255 , 255 , 255)&quot;&gt;beanPostProcess&lt;/span&gt;&lt;/font&gt;&lt;/div&gt;" style="whiteSpace=wrap;html=1;rounded=1;strokeWidth=1;arcSize=14;fontFamily=Garamond;fontSize=12;" parent="WIyWlLk6GJQsqaUBKTNV-1" vertex="1">
          <mxGeometry x="685" y="570" width="120" height="60" as="geometry" />
        </mxCell>
        <mxCell id="IH1qbgPZtB7bxMejOqHf-31" value="" style="edgeStyle=orthogonalEdgeStyle;rounded=0;orthogonalLoop=1;jettySize=auto;html=1;fontFamily=Garamond;fontSize=10;" parent="WIyWlLk6GJQsqaUBKTNV-1" source="IH1qbgPZtB7bxMejOqHf-28" target="IH1qbgPZtB7bxMejOqHf-30" edge="1">
          <mxGeometry relative="1" as="geometry" />
        </mxCell>
        <mxCell id="IH1qbgPZtB7bxMejOqHf-28" value="&lt;div style=&quot;text-align: left&quot;&gt;&lt;font color=&quot;#314659&quot;&gt;&lt;span style=&quot;background-color: rgb(255 , 255 , 255)&quot;&gt;实例化bean&lt;/span&gt;&lt;/font&gt;&lt;/div&gt;" style="whiteSpace=wrap;html=1;rounded=1;strokeWidth=1;arcSize=14;fontFamily=Garamond;fontSize=12;" parent="WIyWlLk6GJQsqaUBKTNV-1" vertex="1">
          <mxGeometry x="885" y="570" width="120" height="60" as="geometry" />
        </mxCell>
        <mxCell id="IH1qbgPZtB7bxMejOqHf-30" value="&lt;div style=&quot;text-align: left&quot;&gt;&lt;font color=&quot;#314659&quot;&gt;&lt;span style=&quot;background-color: rgb(255 , 255 , 255)&quot;&gt;发布通知&lt;/span&gt;&lt;/font&gt;&lt;/div&gt;" style="whiteSpace=wrap;html=1;rounded=1;strokeWidth=1;arcSize=14;fontFamily=Garamond;fontSize=12;" parent="WIyWlLk6GJQsqaUBKTNV-1" vertex="1">
          <mxGeometry x="1085" y="570" width="120" height="60" as="geometry" />
        </mxCell>
        <mxCell id="IH1qbgPZtB7bxMejOqHf-35" value="" style="edgeStyle=orthogonalEdgeStyle;rounded=0;orthogonalLoop=1;jettySize=auto;html=1;fontFamily=Garamond;fontSize=10;" parent="WIyWlLk6GJQsqaUBKTNV-1" source="IH1qbgPZtB7bxMejOqHf-32" target="IH1qbgPZtB7bxMejOqHf-34" edge="1">
          <mxGeometry relative="1" as="geometry" />
        </mxCell>
        <mxCell id="IH1qbgPZtB7bxMejOqHf-32" value="&lt;div style=&quot;text-align: left&quot;&gt;&lt;font color=&quot;#314659&quot;&gt;&lt;span style=&quot;background-color: rgb(255 , 255 , 255)&quot;&gt;发布启动完成事件&lt;/span&gt;&lt;/font&gt;&lt;/div&gt;" style="whiteSpace=wrap;html=1;rounded=1;strokeWidth=1;arcSize=14;fontFamily=Garamond;fontSize=12;" parent="WIyWlLk6GJQsqaUBKTNV-1" vertex="1">
          <mxGeometry x="85" y="710" width="120" height="60" as="geometry" />
        </mxCell>
        <mxCell id="IH1qbgPZtB7bxMejOqHf-34" value="&lt;div style=&quot;text-align: left&quot;&gt;&lt;font color=&quot;#314659&quot;&gt;&lt;span style=&quot;background-color: rgb(255 , 255 , 255)&quot;&gt;启动完成&lt;/span&gt;&lt;/font&gt;&lt;/div&gt;" style="whiteSpace=wrap;html=1;rounded=1;strokeWidth=1;arcSize=14;fontFamily=Garamond;fontSize=12;" parent="WIyWlLk6GJQsqaUBKTNV-1" vertex="1">
          <mxGeometry x="85" y="850" width="120" height="60" as="geometry" />
        </mxCell>
      </root>
    </mxGraphModel>
  </diagram>
  <diagram id="lK6CBGFq36Ry2GUczDmI" name="starter">
    <mxGraphModel dx="1426" dy="794" grid="1" gridSize="10" guides="1" tooltips="1" connect="1" arrows="1" fold="1" page="1" pageScale="1" pageWidth="827" pageHeight="1169" math="0" shadow="0">
      <root>
        <mxCell id="73ZlrhfOzeCbyDbH01VD-0" />
        <mxCell id="73ZlrhfOzeCbyDbH01VD-1" parent="73ZlrhfOzeCbyDbH01VD-0" />
      </root>
    </mxGraphModel>
  </diagram>
</mxfile>
